<?xml version="1.0" encoding="UTF-8"?>
<svg id="Lag_1" data-name="Lag 1" xmlns="http://www.w3.org/2000/svg" version="1.1" viewBox="0 0 241.423 465.571">
  <g>
    <path d="M236.282,288.18c0,32.657-26.481,59.129-59.141,59.129s-59.126-26.472-59.126-59.129,26.477-59.127,59.126-59.127,59.141,26.47,59.141,59.127M177.141,258.729c-16.259,0-29.45,13.187-29.45,29.451s13.191,29.451,29.45,29.451,29.454-13.183,29.454-29.451-13.181-29.451-29.454-29.451Z" fill="#000" stroke-width="0"/>
    <path d="M118.268,406.439c0,32.658-26.48,59.132-59.139,59.132S0,439.098,0,406.439s26.477-59.131,59.129-59.131,59.139,26.474,59.139,59.131M59.126,368.134c-21.147,0-38.301,17.148-38.301,38.306s17.153,38.307,38.301,38.307,38.316-17.146,38.316-38.307-17.148-38.306-38.316-38.306Z" fill="#000" stroke-width="0"/>
    <path d="M118.268,288.18c0,32.657-26.48,59.129-59.139,59.129S0,320.837,0,288.18s26.477-59.127,59.129-59.127,59.139,26.47,59.139,59.127M59.129,273.764c-7.959,0-14.413,6.453-14.413,14.416s6.453,14.417,14.413,14.417,14.421-6.452,14.421-14.417-6.455-14.416-14.421-14.416Z" fill="#000" stroke-width="0"/>
    <path d="M118.268,169.92c0,32.655-26.48,59.132-59.139,59.132S0,202.575,0,169.92s26.477-59.131,59.129-59.131,59.139,26.472,59.139,59.131M59.124,121.717c-26.611,0-48.197,21.574-48.197,48.204s21.586,48.204,48.197,48.204,48.217-21.579,48.217-48.204-21.576-48.204-48.217-48.204Z" fill="#000" stroke-width="0"/>
    <path d="M236.282,406.439c0,32.658-26.481,59.132-59.141,59.132s-59.126-26.474-59.126-59.132,26.477-59.131,59.126-59.131,59.141,26.474,59.141,59.131M177.136,352.445c-29.808,0-53.988,24.171-53.988,53.991s24.181,54,53.988,54,54.012-24.166,54.012-54-24.175-53.991-54.012-53.991Z" fill="#000" stroke-width="0"/>
  </g>
  <g>
    <polygon points="33.805 80.23 33.805 45.743 55.12 45.743 55.12 50.654 41.086 50.654 41.086 59.558 52.098 59.558 52.098 64.417 41.086 64.417 41.086 75.372 56.571 75.372 55.236 80.23 33.805 80.23" fill="#000" stroke-width="0"/>
    <rect x="96.352" y="45.743" width="7.29" height="34.487" fill="#000" stroke-width="0"/>
    <path d="M125.332,80.983c-11.217,0-14.244-6.799-14.244-18.133s3.453-17.648,14.244-17.648,14.194,6.316,14.194,17.648-3.011,18.133-14.194,18.133M125.332,49.789c-5.825,0-6.69,4.476-6.69,13.061,0,8.69.865,13.438,6.69,13.438s6.645-4.749,6.645-13.438c0-8.585-.866-13.061-6.645-13.061" fill="#000" stroke-width="0"/>
    <polygon points="168.769 80.23 154.532 55.385 154.532 80.23 148.056 80.23 148.056 45.743 155.931 45.743 169.309 69.293 169.309 45.743 175.692 45.743 175.692 80.23 168.769 80.23" fill="#000" stroke-width="0"/>
    <polygon points="185.4 80.23 185.4 45.743 206.725 45.743 206.725 50.654 192.69 50.654 192.69 59.558 203.701 59.558 203.701 64.417 192.69 64.417 192.69 75.372 207.258 75.372 207.258 80.23 185.4 80.23" fill="#000" stroke-width="0"/>
    <path d="M13.406.594H.187v34.484h13.201c9.875,0,15.203-8.583,15.203-17.539C28.591,8.53,23.982.594,13.406.594M12.112,30.278h-4.644V5.343h3.779c6.873,0,9.896,3.343,9.896,12.196,0,8.747-3.216,12.739-9.032,12.739M42.711.594l-11.503,34.484h7.451l2.442-8.385h12.684l-1.23-4.942h-10.024l.387-1.346,3.721-12.903c.067-.27.169-.594.169-.811h.055c.05.164.111.541.217.811l3.995,12.903,1.51,4.853,3.081,9.821h7.443L51.452.594h-8.74ZM90.037,23.691L77.079.594h-8.036v34.484h6.642V10.578l13.816,24.5h7.176V.594h-6.641v23.097ZM111.623,8.421c0-2.159,1.834-3.727,4.973-3.727,3.178,0,5.608.541,7.987,1.672V1.134c-3.565-.973-5.351-1.134-8.051-1.134-7.926,0-11.977,3.777-11.977,9.822,0,10.309,14.575,8.742,14.575,16.246,0,3.615-2.106,4.91-5.506,4.91-2,0-4.744-.538-8.802-1.942v5.669c2.432.697,6.372,1.129,9.019,1.129,7.336,0,12.735-3.396,12.735-10.847,0-11.008-14.953-9.984-14.953-16.566M160.363.594h-8.26l-10.417,16.837V.594h-7.287v34.484h7.287v-16.514l11.711,16.514h8.903l-12.899-17.539L160.363.594ZM175.474,30.223v-10.958h11.011v-4.854h-11.011V5.505h14.032V.594h-21.323v34.484h21.857v-4.855h-14.566Z" fill="#000" stroke-width="0"/>
    <path d="M19.619,80.23h8.047l-8.047-15.17c3.667-1.24,6.748-3.668,6.748-9.227,0-6.478-3.135-10.091-9.231-10.091H.187v34.487h7.281v-14.146h5.307l6.844,14.146ZM7.468,50.435h6.912c3.613,0,4.479,2.166,4.479,5.399,0,5.073-2.532,5.826-4.801,5.826h-6.59v-11.225Z" fill="#000" stroke-width="0"/>
    <path d="M233.381,80.23h8.042l-8.042-15.17c3.669-1.24,6.747-3.668,6.747-9.227,0-6.478-3.128-10.091-9.229-10.091h-16.955v34.487h7.286v-14.146h5.313l6.838,14.146ZM221.23,50.435h6.912c3.622,0,4.488,2.166,4.488,5.399,0,5.073-2.548,5.826-4.806,5.826h-6.595v-11.225Z" fill="#000" stroke-width="0"/>
    <path d="M76.927,50.167c1.992,0,7.021.538,9.77,1.134v-5.237c-2.649-.537-6.64-.861-9.497-.861-13.123,0-17.219,8.635-17.219,17.536,0,8.1,3.453,18.245,15.862,18.245,4.462,0,8.165-.753,10.854-1.564v-18.567h-7.019s-4.365,0-4.365,0v5.564h4.365v9.767c-.865.106-1.731.106-2.478.106-7.885,0-9.553-6.64-9.553-13.55,0-7.554,2.107-12.572,9.281-12.572Z" fill="#000" stroke-width="0"/>
  </g>
</svg>