<?xml version="1.0" encoding="utf-8"?>
<!-- Generator: Adobe Illustrator 27.1.1, SVG Export Plug-In . SVG Version: 6.00 Build 0)  -->
<svg version="1.1" id="Layer_2" xmlns="http://www.w3.org/2000/svg" xmlns:xlink="http://www.w3.org/1999/xlink" x="0px" y="0px"
	 viewBox="0 0 283.5 91.3" style="enable-background:new 0 0 283.5 91.3;" xml:space="preserve">
<style type="text/css">
	.st0{fill:#005C8D;}
</style>
<g>
	<g>
		<g>
			<polygon class="st0" points="7,31.9 7,37.5 30.9,37.5 35.6,37.5 35.6,31.9 			"/>
			<path class="st0" d="M39.6,23.2c0,0,3-2.2,3-5.4c0-3.2-2.9-4-3.5-4.2c-1.7-0.4-3,0.2-3,0.2s-1-1.9-3.5-2.1
				c-3.6-0.4-6.5,1.5-8.4,3.2c-0.8,0.7-1.4,1.4-1.8,1.7l-0.2-2.1c2-0.3,3.5-1.8,3.5-3.6c0-1.8-1.6-3.4-3.8-3.6V5.5h1.5
				c0.2,0.4,0.7,0.7,1.2,0.7c0.7,0,1.3-0.6,1.3-1.3c0-0.7-0.6-1.3-1.3-1.3c-0.5,0-0.9,0.3-1.2,0.7h-1.5V2.5c0.4-0.2,0.7-0.7,0.7-1.2
				C22.6,0.6,22,0,21.3,0c-0.7,0-1.3,0.6-1.3,1.3c0,0.5,0.3,0.9,0.7,1.2v1.7h-1.5c-0.2-0.4-0.7-0.7-1.2-0.7c-0.7,0-1.3,0.6-1.3,1.3
				c0,0.7,0.6,1.3,1.3,1.3c0.5,0,0.9-0.3,1.2-0.7h1.5v1.8c-2.1,0.3-3.8,1.8-3.8,3.6c0,1.8,1.5,3.2,3.5,3.6c0,0-0.2,2.1-0.2,2.1
				c-0.4-0.4-1-1.1-1.8-1.7c-1.9-1.6-4.8-3.6-8.4-3.2c-2.5,0.3-3.5,2.1-3.5,2.1s-1.3-0.6-3-0.2c-0.6,0.1-3.5,1-3.5,4.2
				c0,3.2,3,5.4,3,5.4s-0.6,0.1-0.8,0.3c-0.2,0.2,0,0.6,0.1,0.6c0.6,0.1,2.3,0.3,3.6,2.3C7,28.2,7,29.4,7,30.8h28.6
				c0-1.3,0-2.6,1.1-4.4c1.2-2,2.9-2.2,3.6-2.3c0.1,0,0.3-0.3,0.1-0.6C40.1,23.3,39.6,23.2,39.6,23.2z M11.6,28.2
				c-0.1,0.6-0.6,1.1-1.3,1.1c-0.6,0-1.2-0.5-1.3-1.1c-0.1-0.9-0.6-2.4-1.2-3.4c-1.4-2.5-3.2-1.8-3.2-1.8c-1.4-1.3-1.8-3.5-1.8-3.5
				c0.3,0.2,0.9,0.4,1.2,0.4c0.5,0,0.6-0.3,0.2-0.6c-1.9-1.3-0.4-3.6,1.5-3.5c0,0-0.1,0.2-0.1,0.3c-0.3,1.5,0.3,2.8,1.1,3.6
				c0.6,0.6,2.6,2.1,2.6,2.1s-0.9,0.1-1,0.3c-0.1,0.2-0.1,0.4,0.1,0.5C11.5,24.4,11.7,26.8,11.6,28.2z M15.5,23.3
				c0.5,1.7,2.5,3.4,4.1,4.2c0.3,0.2,0.5,0.4,0.5,0.8h0c0,0.2-0.1,0.4-0.2,0.6c-0.6,0.8-2.5,0.1-4.3-1.3c-0.8-0.7-1.4-1.4-1.8-2.1h0
				c0-0.7,0.1-4-2.6-3.9c-0.5-0.1-1.9-1.9-1.9-3c0,0,0.5,0.3,0.9,0.4c1.2,0.3,1.2-0.4,0.8-0.6c-0.5-0.3-1.9-1.7-0.9-2.9
				c1.4-1.7,7-1,9.4,3.5c0.4,0.8,0.7,1.7,0.8,2.7H20c-0.3-0.9-1.2-1.5-2.2-1.5c-1.3,0-2.4,1.1-2.4,2.4C15.4,23,15.5,23.3,15.5,23.3z
				 M28.7,25.5c-0.4,0.7-1,1.4-1.8,2.1c-1.8,1.5-3.7,2.1-4.3,1.3c-0.1-0.2-0.2-0.3-0.2-0.6h0c0-0.3,0.2-0.6,0.5-0.8
				c1.6-0.8,3.6-2.6,4.1-4.2c0,0,0.1-0.4,0.1-0.8c0-1.3-1.1-2.4-2.4-2.4c-1,0-1.9,0.6-2.2,1.5h-0.4c0.1-1,0.4-1.9,0.8-2.7
				c2.5-4.4,8.1-5.2,9.4-3.5c1,1.2-0.4,2.6-0.9,2.9c-0.4,0.2-0.4,0.8,0.8,0.6c0.4-0.1,0.9-0.4,0.9-0.4c0,1.1-1.4,2.9-1.9,3
				C28.6,21.5,28.7,24.9,28.7,25.5L28.7,25.5z M37.8,22.9c0,0-1.8-0.6-3.2,1.8c-0.6,1.1-1,2.5-1.2,3.4c-0.1,0.6-0.6,1.1-1.3,1.1
				c-0.6,0-1.2-0.5-1.3-1.1c-0.1-1.3,0.1-3.8,3.1-5.6c0.2-0.1,0.3-0.3,0.1-0.5c-0.1-0.2-1-0.3-1-0.3s2.1-1.5,2.6-2.1
				c0.8-0.8,1.4-2.1,1.1-3.6c0-0.1-0.1-0.3-0.1-0.3c1.9-0.1,3.4,2.1,1.5,3.5c-0.4,0.3-0.3,0.6,0.2,0.6c0.3,0,0.8-0.1,1.2-0.4
				C39.7,19.5,39.2,21.6,37.8,22.9z"/>
		</g>
	</g>
	<g>
		<path class="st0" d="M10.3,65.8H7V48.1h3.3v4.2V65.8z"/>
		<path class="st0" d="M17.7,52.4v13.4h-3.3V48.1h4.5l6.7,13.4V48.1h3.3v17.7h-4.5L17.7,52.4z"/>
		<path class="st0" d="M39.4,48.1c4.3,0,5.9,2.2,5.9,4.7V61c0,2.5-1.5,4.7-5.9,4.7h-6.6V48.1H39.4z M36.2,62.8h2.9
			c2.3,0,2.9-0.9,2.9-2.6v-6.6c0-1.7-0.6-2.6-2.9-2.6h-2.9V62.8z"/>
		<path class="st0" d="M48.9,48.1h10.8V51h-7.5v4.3h6.9v2.9h-6.9v4.6h7.5v2.9H48.9V48.1z"/>
		<path class="st0" d="M66.4,52.4v13.4h-3.3V48.1h4.5l6.7,13.4V48.1h3.3v17.7h-4.5L66.4,52.4z"/>
		<path class="st0" d="M92.1,65.8l-4.1-5.8h-3.2v5.8h-3.3V48.1h7.2c4.1,0,5.6,1.7,5.6,4.8v2.3c0,2.1-0.8,3.6-2.7,4.3l4.4,6.3H92.1z
			 M88.6,51h-3.8v6h3.8c1.8,0,2.4-0.7,2.4-2.1v-1.7C91.1,51.6,90.4,51,88.6,51z"/>
		<path class="st0" d="M102.3,65.8h-3.3V48.1h3.3V54V65.8z"/>
		<path class="st0" d="M109.3,60.3c0,1.7,0.7,2.7,3.1,2.7c0.9,0,1.8-0.1,2.7-0.2v-5.4h3.2v7.8c-1.9,0.5-4.1,0.8-5.9,0.8
			c-4.3,0-6.4-1.8-6.4-5.3v-7.5c0-3.6,2.1-5.3,6.7-5.3c1.4,0,3.5,0.2,5.1,0.6l-0.4,2.9c-1.6-0.3-3.2-0.5-5-0.5c-2.3,0-3.1,1-3.1,2.8
			V60.3z"/>
		<path class="st0" d="M126.6,66c-2,0-4.3-0.5-5.5-1.1l0.6-2.6c1.6,0.5,3.2,0.8,5,0.8c2.4,0,2.8-0.5,2.8-2.2c0-2-0.1-2.1-3.2-2.8
			c-4.3-1-4.9-1.8-4.9-5.5c0-3.2,1.5-4.8,5.9-4.8c1.5,0,3.4,0.2,5.1,0.6l-0.4,2.8c-1.5-0.3-3.2-0.5-4.7-0.5c-2.3,0-2.7,0.5-2.7,2
			c0,2,0.1,2.1,3.1,2.8c4.7,1.1,5,1.9,5,5.4C132.9,64.3,131.9,66,126.6,66z"/>
		<path class="st0" d="M136.2,57h6.7v2.7h-3.3h-3.3V57z"/>
		<path class="st0" d="M165,60.6c0,2.9-1.7,5.4-6.7,5.4c-5,0-6.7-2.5-6.7-5.4v-7.3c0-2.9,1.7-5.4,6.7-5.4c5,0,6.7,2.5,6.7,5.4V60.6z
			 M154.9,60.4c0,1.7,0.8,2.7,3.3,2.7c2.5,0,3.3-1,3.3-2.7v-6.9c0-1.7-0.8-2.7-3.3-2.7c-2.5,0-3.3,1-3.3,2.7V60.4z"/>
		<path class="st0" d="M171.5,60.3c0,1.7,0.7,2.7,3.1,2.7c0.9,0,1.8-0.1,2.7-0.2v-5.4h3.2v7.8c-1.9,0.5-4.1,0.8-5.9,0.8
			c-4.3,0-6.4-1.8-6.4-5.3v-7.5c0-3.6,2.1-5.3,6.7-5.3c1.4,0,3.5,0.2,5.1,0.6l-0.4,2.9c-1.6-0.3-3.2-0.5-5-0.5c-2.3,0-3.1,1-3.1,2.8
			V60.3z"/>
		<path class="st0" d="M11.7,91.3c-2,0-4.3-0.5-5.5-1.1l0.6-2.6c1.6,0.5,3.2,0.8,5,0.8c2.4,0,2.8-0.5,2.8-2.2c0-2-0.1-2.1-3.2-2.8
			c-4.3-1-4.9-1.8-4.9-5.5c0-3.2,1.5-4.8,5.9-4.8c1.5,0,3.4,0.2,5.1,0.6l-0.4,2.8C15.7,76.2,14,76,12.4,76c-2.3,0-2.7,0.5-2.7,2
			c0,2,0.1,2.1,3.1,2.8c4.7,1.1,5,1.9,5,5.4C17.9,89.6,16.9,91.3,11.7,91.3z"/>
		<path class="st0" d="M34.1,73.4v12.5c0,2.8-1.6,5.4-6.5,5.4c-5,0-6.5-2.6-6.5-5.4V73.4h3.3v12.3c0,1.7,0.8,2.7,3.2,2.7
			s3.2-1,3.2-2.7V73.4H34.1z"/>
		<path class="st0" d="M41.2,77.6V91H38V73.4h4.5l6.7,13.4V73.4h3.3V91h-4.5L41.2,77.6z"/>
		<path class="st0" d="M62.9,73.4c4.3,0,5.9,2.2,5.9,4.7v8.2c0,2.5-1.5,4.7-5.9,4.7h-6.6V73.4H62.9z M59.7,88.1h2.9
			c2.3,0,2.9-0.9,2.9-2.6v-6.6c0-1.7-0.6-2.6-2.9-2.6h-2.9V88.1z"/>
		<path class="st0" d="M82.3,91v-7.5h-6.5V91h-3.3V73.4h3.3v7.3h6.5v-7.3h3.3V91H82.3z"/>
		<path class="st0" d="M89.6,73.4h10.8v2.9h-7.5v4.3h6.9v2.9h-6.9v4.6h7.5V91H89.6V73.4z"/>
		<path class="st0" d="M110.4,73.4c4.3,0,5.9,2.2,5.9,4.7v8.2c0,2.5-1.5,4.7-5.9,4.7h-6.6V73.4H110.4z M107.2,88.1h2.9
			c2.3,0,2.9-0.9,2.9-2.6v-6.6c0-1.7-0.6-2.6-2.9-2.6h-2.9V88.1z"/>
		<path class="st0" d="M124.7,91.3c-2,0-4.3-0.5-5.5-1.1l0.6-2.6c1.6,0.5,3.2,0.8,5,0.8c2.4,0,2.8-0.5,2.8-2.2c0-2-0.1-2.1-3.2-2.8
			c-4.3-1-4.9-1.8-4.9-5.5c0-3.2,1.5-4.8,5.9-4.8c1.5,0,3.4,0.2,5.1,0.6l-0.4,2.8c-1.5-0.3-3.2-0.5-4.7-0.5c-2.3,0-2.7,0.5-2.7,2
			c0,2,0.1,2.1,3.1,2.8c4.7,1.1,5,1.9,5,5.4C130.9,89.6,129.9,91.3,124.7,91.3z"/>
		<path class="st0" d="M145.1,88.7h-4.2l-3.3-9.1L137.3,91h-3.4l0.8-17.7h3.7l4.6,12.5l4.6-12.5h3.7l0.8,17.7h-3.4l-0.3-11.4
			L145.1,88.7z"/>
		<path class="st0" d="M159.3,91h-3.3V73.4h3.3v8.8V91z"/>
		<path class="st0" d="M166.7,77.6V91h-3.3V73.4h4.5l6.7,13.4V73.4h3.3V91h-4.5L166.7,77.6z"/>
		<path class="st0" d="M185.3,91h-3.3V73.4h3.3v8.3V91z"/>
		<path class="st0" d="M194.2,91.3c-2,0-4.3-0.5-5.5-1.1l0.6-2.6c1.6,0.5,3.2,0.8,5,0.8c2.4,0,2.8-0.5,2.8-2.2c0-2-0.1-2.1-3.2-2.8
			c-4.3-1-4.9-1.8-4.9-5.5c0-3.2,1.5-4.8,5.9-4.8c1.5,0,3.4,0.2,5.1,0.6l-0.4,2.8c-1.5-0.3-3.2-0.5-4.7-0.5c-2.3,0-2.7,0.5-2.7,2
			c0,2,0.1,2.1,3.1,2.8c4.7,1.1,5,1.9,5,5.4C200.4,89.6,199.4,91.3,194.2,91.3z"/>
		<path class="st0" d="M207.3,76.3h-4.9v-2.9h13.2v2.9h-4.9V91h-3.3V76.3z"/>
		<path class="st0" d="M218.2,73.4h10.8v2.9h-7.5v4.3h6.9v2.9h-6.9v4.6h7.5V91h-10.8V73.4z"/>
		<path class="st0" d="M243.1,91l-4.1-5.8h-3.2V91h-3.3V73.4h7.2c4.1,0,5.6,1.7,5.6,4.8v2.3c0,2.1-0.8,3.6-2.7,4.3l4.4,6.3H243.1z
			 M239.6,76.3h-3.8v6h3.8c1.8,0,2.4-0.7,2.4-2.1v-1.7C242,76.9,241.4,76.3,239.6,76.3z"/>
		<path class="st0" d="M253.2,91h-3.3V73.4h3.3V80V91z"/>
		<path class="st0" d="M257.3,73.4h10.8v2.9h-7.5v4.3h6.9v2.9h-6.9v4.6h7.5V91h-10.8V73.4z"/>
		<path class="st0" d="M275.2,76.3h-4.9v-2.9h13.2v2.9h-4.9V91h-3.3V76.3z"/>
	</g>
</g>
</svg>
