<?xml version="1.0" encoding="UTF-8"?>
<svg id="Lag_1" xmlns="http://www.w3.org/2000/svg" version="1.1" viewBox="0 0 241.42 465.57">
  <!-- Generator: Adobe Illustrator 29.8.1, SVG Export Plug-In . SVG Version: 2.1.1 Build 2)  -->
  <defs>
    <style>
      .st0 {
        fill: #015650;
      }
    </style>
  </defs>
  <g>
    <path class="st0" d="M236.28,288.18c0,32.66-26.48,59.13-59.14,59.13s-59.13-26.47-59.13-59.13,26.48-59.13,59.13-59.13,59.14,26.47,59.14,59.13M177.14,258.73c-16.26,0-29.45,13.19-29.45,29.45s13.19,29.45,29.45,29.45,29.45-13.18,29.45-29.45-13.18-29.45-29.45-29.45Z"/>
    <path class="st0" d="M118.27,406.44c0,32.66-26.48,59.13-59.14,59.13S0,439.1,0,406.44s26.48-59.13,59.13-59.13,59.14,26.47,59.14,59.13M59.13,368.13c-21.15,0-38.3,17.15-38.3,38.31s17.15,38.31,38.3,38.31,38.32-17.15,38.32-38.31-17.15-38.31-38.32-38.31Z"/>
    <path class="st0" d="M118.27,288.18c0,32.66-26.48,59.13-59.14,59.13S0,320.84,0,288.18s26.48-59.13,59.13-59.13,59.14,26.47,59.14,59.13M59.13,273.76c-7.96,0-14.41,6.45-14.41,14.42s6.45,14.42,14.41,14.42,14.42-6.45,14.42-14.42-6.46-14.42-14.42-14.42h0Z"/>
    <path class="st0" d="M118.27,169.92c0,32.65-26.48,59.13-59.14,59.13S0,202.57,0,169.92s26.48-59.13,59.13-59.13,59.14,26.47,59.14,59.13M59.12,121.72c-26.61,0-48.2,21.57-48.2,48.2s21.59,48.2,48.2,48.2,48.22-21.58,48.22-48.2-21.58-48.2-48.22-48.2Z"/>
    <path class="st0" d="M236.28,406.44c0,32.66-26.48,59.13-59.14,59.13s-59.13-26.47-59.13-59.13,26.48-59.13,59.13-59.13,59.14,26.47,59.14,59.13M177.14,352.45c-29.81,0-53.99,24.17-53.99,53.99s24.18,54,53.99,54,54.01-24.17,54.01-54-24.18-53.99-54.01-53.99h0Z"/>
  </g>
  <g>
    <polygon class="st0" points="33.81 80.23 33.81 45.74 55.12 45.74 55.12 50.65 41.09 50.65 41.09 59.56 52.1 59.56 52.1 64.42 41.09 64.42 41.09 75.37 56.57 75.37 55.24 80.23 33.81 80.23"/>
    <rect class="st0" x="96.35" y="45.74" width="7.29" height="34.49"/>
    <path class="st0" d="M125.33,80.98c-11.22,0-14.24-6.8-14.24-18.13s3.45-17.65,14.24-17.65,14.19,6.32,14.19,17.65-3.01,18.13-14.19,18.13M125.33,49.79c-5.82,0-6.69,4.48-6.69,13.06s.86,13.44,6.69,13.44,6.65-4.75,6.65-13.44-.87-13.06-6.64-13.06"/>
    <polygon class="st0" points="168.77 80.23 154.53 55.38 154.53 80.23 148.06 80.23 148.06 45.74 155.93 45.74 169.31 69.29 169.31 45.74 175.69 45.74 175.69 80.23 168.77 80.23"/>
    <polygon class="st0" points="185.4 80.23 185.4 45.74 206.73 45.74 206.73 50.65 192.69 50.65 192.69 59.56 203.7 59.56 203.7 64.42 192.69 64.42 192.69 75.37 207.26 75.37 207.26 80.23 185.4 80.23"/>
    <path class="st0" d="M13.41.59H.19v34.48h13.2c9.88,0,15.2-8.58,15.2-17.54S23.98.59,13.41.59M12.11,30.28h-4.64V5.34h3.78c6.87,0,9.9,3.34,9.9,12.2s-3.22,12.74-9.03,12.74M42.71.59l-11.5,34.48h7.45l2.44-8.39h12.68l-1.23-4.94h-10.02l.39-1.35,3.72-12.9c.07-.27.17-.59.17-.81h.06c.05.16.11.54.22.81l3.99,12.9,1.51,4.85,3.08,9.82h7.44L51.45.59h-8.74ZM90.04,23.69L77.08.59h-8.04v34.48h6.64V10.58l13.82,24.5h7.18V.59h-6.64v23.1h0ZM111.62,8.42c0-2.16,1.83-3.73,4.97-3.73s5.61.54,7.99,1.67V1.13C121.02.16,119.23,0,116.53,0,108.61,0,104.56,3.78,104.56,9.82c0,10.31,14.57,8.74,14.57,16.25,0,3.61-2.11,4.91-5.51,4.91-2,0-4.74-.54-8.8-1.94v5.67c2.43.7,6.37,1.13,9.02,1.13,7.34,0,12.74-3.4,12.74-10.85,0-11.01-14.95-9.98-14.95-16.57M160.36.59h-8.26l-10.42,16.84V.59h-7.29v34.48h7.29v-16.51l11.71,16.51h8.9l-12.9-17.54L160.36.59ZM175.47,30.22v-10.96h11.01v-4.85h-11.01V5.51h14.03V.59h-21.32v34.48h21.86v-4.85s-14.57,0-14.57,0Z"/>
    <path class="st0" d="M19.62,80.23h8.05l-8.05-15.17c3.67-1.24,6.75-3.67,6.75-9.23,0-6.48-3.14-10.09-9.23-10.09H.19v34.49h7.28v-14.15h5.31l6.84,14.15h0ZM7.47,50.44h6.91c3.61,0,4.48,2.17,4.48,5.4,0,5.07-2.53,5.83-4.8,5.83h-6.59s0-11.23,0-11.22Z"/>
    <path class="st0" d="M233.38,80.23h8.04l-8.04-15.17c3.67-1.24,6.75-3.67,6.75-9.23,0-6.48-3.13-10.09-9.23-10.09h-16.96v34.49h7.29v-14.15h5.31l6.84,14.15h0ZM221.23,50.44h6.91c3.62,0,4.49,2.17,4.49,5.4,0,5.07-2.55,5.83-4.81,5.83h-6.6v-11.23h0Z"/>
    <path class="st0" d="M76.93,50.17c1.99,0,7.02.54,9.77,1.13v-5.24c-2.65-.54-6.64-.86-9.5-.86-13.12,0-17.22,8.63-17.22,17.54,0,8.1,3.45,18.25,15.86,18.25,4.46,0,8.17-.75,10.85-1.56v-18.57h-11.38v5.56h4.36v9.77c-.86.11-1.73.11-2.48.11-7.89,0-9.55-6.64-9.55-13.55,0-7.55,2.11-12.57,9.28-12.57h0Z"/>
  </g>
</svg>