<?xml version="1.0" encoding="UTF-8"?>
<svg id="Layer_2" xmlns="http://www.w3.org/2000/svg" version="1.1" viewBox="0 0 283.5 91.3">
  <!-- Generator: Adobe Illustrator 29.8.1, SVG Export Plug-In . SVG Version: 2.1.1 Build 2)  -->
  <defs>
    <style>
      .st0 {
        fill: #001f19;
      }
    </style>
  </defs>
  <g>
    <polygon class="st0" points="7 31.9 7 37.5 30.9 37.5 35.6 37.5 35.6 31.9 7 31.9"/>
    <path class="st0" d="M39.6,23.2s3-2.2,3-5.4-2.9-4-3.5-4.2c-1.7-.4-3,.2-3,.2,0,0-1-1.9-3.5-2.1-3.6-.4-6.5,1.5-8.4,3.2-.8.7-1.4,1.4-1.8,1.7l-.2-2.1c2-.3,3.5-1.8,3.5-3.6s-1.6-3.4-3.8-3.6v-1.8h1.5c.2.4.7.7,1.2.7.7,0,1.3-.6,1.3-1.3s-.6-1.3-1.3-1.3c-.5,0-.9.3-1.2.7h-1.5v-1.8c.4-.2.7-.7.7-1.2C22.6.6,22,0,21.3,0s-1.3.6-1.3,1.3c0,.5.3.9.7,1.2v1.7h-1.5c-.2-.4-.7-.7-1.2-.7-.7,0-1.3.6-1.3,1.3s.6,1.3,1.3,1.3c.5,0,.9-.3,1.2-.7h1.5v1.8c-2.1.3-3.8,1.8-3.8,3.6s1.5,3.2,3.5,3.6l-.2,2.1c-.4-.4-1-1.1-1.8-1.7-1.9-1.6-4.8-3.6-8.4-3.2-2.5.3-3.5,2.1-3.5,2.1,0,0-1.3-.6-3-.2C2.9,13.6,0,14.5,0,17.7s3,5.4,3,5.4c0,0-.6.1-.8.3-.2.2,0,.6.1.6.6.1,2.3.3,3.6,2.3,1.1,1.9,1.1,3.1,1.1,4.5h28.6c0-1.3,0-2.6,1.1-4.4,1.2-2,2.9-2.2,3.6-2.3.1,0,.3-.3.1-.6-.3-.2-.8-.3-.8-.3ZM11.6,28.2c-.1.6-.6,1.1-1.3,1.1-.6,0-1.2-.5-1.3-1.1-.1-.9-.6-2.4-1.2-3.4-1.4-2.5-3.2-1.8-3.2-1.8-1.4-1.3-1.8-3.5-1.8-3.5.3.2.9.4,1.2.4.5,0,.6-.3.2-.6-1.9-1.3-.4-3.6,1.5-3.5,0,0-.1.2-.1.3-.3,1.5.3,2.8,1.1,3.6.6.6,2.6,2.1,2.6,2.1,0,0-.9.1-1,.3-.1.2-.1.4.1.5,3.1,1.8,3.3,4.2,3.2,5.6ZM15.5,23.3c.5,1.7,2.5,3.4,4.1,4.2.3.2.5.4.5.8h0c0,.2-.1.4-.2.6-.6.8-2.5.1-4.3-1.3-.8-.7-1.4-1.4-1.8-2.1h0c0-.7.1-4-2.6-3.9-.5-.1-1.9-1.9-1.9-3,0,0,.5.3.9.4,1.2.3,1.2-.4.8-.6-.5-.3-1.9-1.7-.9-2.9,1.4-1.7,7-1,9.4,3.5.4.8.7,1.7.8,2.7h-.3c-.3-.9-1.2-1.5-2.2-1.5-1.3,0-2.4,1.1-2.4,2.4,0,.4.1.7.1.7ZM28.7,25.5c-.4.7-1,1.4-1.8,2.1-1.8,1.5-3.7,2.1-4.3,1.3-.1-.2-.2-.3-.2-.6h0c0-.3.2-.6.5-.8,1.6-.8,3.6-2.6,4.1-4.2,0,0,.1-.4.1-.8,0-1.3-1.1-2.4-2.4-2.4-1,0-1.9.6-2.2,1.5h-.4c.1-1,.4-1.9.8-2.7,2.5-4.4,8.1-5.2,9.4-3.5,1,1.2-.4,2.6-.9,2.9-.4.2-.4.8.8.6.4-.1.9-.4.9-.4,0,1.1-1.4,2.9-1.9,3-2.6,0-2.5,3.4-2.5,4h0ZM37.8,22.9s-1.8-.6-3.2,1.8c-.6,1.1-1,2.5-1.2,3.4-.1.6-.6,1.1-1.3,1.1-.6,0-1.2-.5-1.3-1.1-.1-1.3.1-3.8,3.1-5.6.2-.1.3-.3.1-.5-.1-.2-1-.3-1-.3,0,0,2.1-1.5,2.6-2.1.8-.8,1.4-2.1,1.1-3.6,0-.1-.1-.3-.1-.3,1.9-.1,3.4,2.1,1.5,3.5-.4.3-.3.6.2.6.3,0,.8-.1,1.2-.4.2.1-.3,2.2-1.7,3.5Z"/>
  </g>
  <g>
    <path class="st0" d="M10.3,65.8h-3.3v-17.7h3.3v17.7Z"/>
    <path class="st0" d="M17.7,52.4v13.4h-3.3v-17.7h4.5l6.7,13.4v-13.4h3.3v17.7h-4.5l-6.7-13.4Z"/>
    <path class="st0" d="M39.4,48.1c4.3,0,5.9,2.2,5.9,4.7v8.2c0,2.5-1.5,4.7-5.9,4.7h-6.6v-17.6h6.6ZM36.2,62.8h2.9c2.3,0,2.9-.9,2.9-2.6v-6.6c0-1.7-.6-2.6-2.9-2.6h-2.9v11.8Z"/>
    <path class="st0" d="M48.9,48.1h10.8v2.9h-7.5v4.3h6.9v2.9h-6.9v4.6h7.5v2.9h-10.8v-17.6Z"/>
    <path class="st0" d="M66.4,52.4v13.4h-3.3v-17.7h4.5l6.7,13.4v-13.4h3.3v17.7h-4.5l-6.7-13.4Z"/>
    <path class="st0" d="M92.1,65.8l-4.1-5.8h-3.2v5.8h-3.3v-17.7h7.2c4.1,0,5.6,1.7,5.6,4.8v2.3c0,2.1-.8,3.6-2.7,4.3l4.4,6.3s-3.9,0-3.9,0ZM88.6,51h-3.8v6h3.8c1.8,0,2.4-.7,2.4-2.1v-1.7c.1-1.6-.6-2.2-2.4-2.2Z"/>
    <path class="st0" d="M102.3,65.8h-3.3v-17.7h3.3v17.7Z"/>
    <path class="st0" d="M109.3,60.3c0,1.7.7,2.7,3.1,2.7.9,0,1.8-.1,2.7-.2v-5.4h3.2v7.8c-1.9.5-4.1.8-5.9.8-4.3,0-6.4-1.8-6.4-5.3v-7.5c0-3.6,2.1-5.3,6.7-5.3,1.4,0,3.5.2,5.1.6l-.4,2.9c-1.6-.3-3.2-.5-5-.5-2.3,0-3.1,1-3.1,2.8v6.6h0Z"/>
    <path class="st0" d="M126.6,66c-2,0-4.3-.5-5.5-1.1l.6-2.6c1.6.5,3.2.8,5,.8,2.4,0,2.8-.5,2.8-2.2,0-2-.1-2.1-3.2-2.8-4.3-1-4.9-1.8-4.9-5.5,0-3.2,1.5-4.8,5.9-4.8,1.5,0,3.4.2,5.1.6l-.4,2.8c-1.5-.3-3.2-.5-4.7-.5-2.3,0-2.7.5-2.7,2,0,2,.1,2.1,3.1,2.8,4.7,1.1,5,1.9,5,5.4.2,3.4-.8,5.1-6.1,5.1Z"/>
    <path class="st0" d="M136.2,57h6.7v2.7h-6.6v-2.7h-.1Z"/>
    <path class="st0" d="M165,60.6c0,2.9-1.7,5.4-6.7,5.4s-6.7-2.5-6.7-5.4v-7.3c0-2.9,1.7-5.4,6.7-5.4s6.7,2.5,6.7,5.4v7.3ZM154.9,60.4c0,1.7.8,2.7,3.3,2.7s3.3-1,3.3-2.7v-6.9c0-1.7-.8-2.7-3.3-2.7s-3.3,1-3.3,2.7v6.9Z"/>
    <path class="st0" d="M171.5,60.3c0,1.7.7,2.7,3.1,2.7.9,0,1.8-.1,2.7-.2v-5.4h3.2v7.8c-1.9.5-4.1.8-5.9.8-4.3,0-6.4-1.8-6.4-5.3v-7.5c0-3.6,2.1-5.3,6.7-5.3,1.4,0,3.5.2,5.1.6l-.4,2.9c-1.6-.3-3.2-.5-5-.5-2.3,0-3.1,1-3.1,2.8v6.6h0Z"/>
    <path class="st0" d="M11.7,91.3c-2,0-4.3-.5-5.5-1.1l.6-2.6c1.6.5,3.2.8,5,.8,2.4,0,2.8-.5,2.8-2.2,0-2-.1-2.1-3.2-2.8-4.3-1-4.9-1.8-4.9-5.5,0-3.2,1.5-4.8,5.9-4.8,1.5,0,3.4.2,5.1.6l-.4,2.8c-1.4-.3-3.1-.5-4.7-.5-2.3,0-2.7.5-2.7,2,0,2,.1,2.1,3.1,2.8,4.7,1.1,5,1.9,5,5.4.1,3.4-.9,5.1-6.1,5.1Z"/>
    <path class="st0" d="M34.1,73.4v12.5c0,2.8-1.6,5.4-6.5,5.4s-6.5-2.6-6.5-5.4v-12.5h3.3v12.3c0,1.7.8,2.7,3.2,2.7s3.2-1,3.2-2.7v-12.3h3.3Z"/>
    <path class="st0" d="M41.2,77.6v13.4h-3.2v-17.6h4.5l6.7,13.4v-13.4h3.3v17.6h-4.5l-6.8-13.4Z"/>
    <path class="st0" d="M62.9,73.4c4.3,0,5.9,2.2,5.9,4.7v8.2c0,2.5-1.5,4.7-5.9,4.7h-6.6v-17.6h6.6ZM59.7,88.1h2.9c2.3,0,2.9-.9,2.9-2.6v-6.6c0-1.7-.6-2.6-2.9-2.6h-2.9s0,11.8,0,11.8Z"/>
    <path class="st0" d="M82.3,91v-7.5h-6.5v7.5h-3.3v-17.6h3.3v7.3h6.5v-7.3h3.3v17.6h-3.3Z"/>
    <path class="st0" d="M89.6,73.4h10.8v2.9h-7.5v4.3h6.9v2.9h-6.9v4.6h7.5v2.9h-10.8v-17.6Z"/>
    <path class="st0" d="M110.4,73.4c4.3,0,5.9,2.2,5.9,4.7v8.2c0,2.5-1.5,4.7-5.9,4.7h-6.6v-17.6h6.6ZM107.2,88.1h2.9c2.3,0,2.9-.9,2.9-2.6v-6.6c0-1.7-.6-2.6-2.9-2.6h-2.9v11.8Z"/>
    <path class="st0" d="M124.7,91.3c-2,0-4.3-.5-5.5-1.1l.6-2.6c1.6.5,3.2.8,5,.8,2.4,0,2.8-.5,2.8-2.2,0-2-.1-2.1-3.2-2.8-4.3-1-4.9-1.8-4.9-5.5,0-3.2,1.5-4.8,5.9-4.8,1.5,0,3.4.2,5.1.6l-.4,2.8c-1.5-.3-3.2-.5-4.7-.5-2.3,0-2.7.5-2.7,2,0,2,.1,2.1,3.1,2.8,4.7,1.1,5,1.9,5,5.4.1,3.4-.9,5.1-6.1,5.1Z"/>
    <path class="st0" d="M145.1,88.7h-4.2l-3.3-9.1-.3,11.4h-3.4l.8-17.7h3.7l4.6,12.5,4.6-12.5h3.7l.8,17.7h-3.4l-.3-11.4-3.3,9.1Z"/>
    <path class="st0" d="M159.3,91h-3.3v-17.6h3.3v17.6Z"/>
    <path class="st0" d="M166.7,77.6v13.4h-3.3v-17.6h4.5l6.7,13.4v-13.4h3.3v17.6h-4.5l-6.7-13.4Z"/>
    <path class="st0" d="M185.3,91h-3.3v-17.6h3.3v17.6Z"/>
    <path class="st0" d="M194.2,91.3c-2,0-4.3-.5-5.5-1.1l.6-2.6c1.6.5,3.2.8,5,.8,2.4,0,2.8-.5,2.8-2.2,0-2-.1-2.1-3.2-2.8-4.3-1-4.9-1.8-4.9-5.5,0-3.2,1.5-4.8,5.9-4.8,1.5,0,3.4.2,5.1.6l-.4,2.8c-1.5-.3-3.2-.5-4.7-.5-2.3,0-2.7.5-2.7,2,0,2,.1,2.1,3.1,2.8,4.7,1.1,5,1.9,5,5.4.1,3.4-.9,5.1-6.1,5.1Z"/>
    <path class="st0" d="M207.3,76.3h-4.9v-2.9h13.2v2.9h-4.9v14.7h-3.3v-14.7h-.1Z"/>
    <path class="st0" d="M218.2,73.4h10.8v2.9h-7.5v4.3h6.9v2.9h-6.9v4.6h7.5v2.9h-10.8v-17.6Z"/>
    <path class="st0" d="M243.1,91l-4.1-5.8h-3.2v5.8h-3.3v-17.6h7.2c4.1,0,5.6,1.7,5.6,4.8v2.3c0,2.1-.8,3.6-2.7,4.3l4.4,6.3h-3.9v-.1ZM239.6,76.3h-3.8v6h3.8c1.8,0,2.4-.7,2.4-2.1v-1.7c0-1.6-.6-2.2-2.4-2.2Z"/>
    <path class="st0" d="M253.2,91h-3.3v-17.6h3.3v17.6Z"/>
    <path class="st0" d="M257.3,73.4h10.8v2.9h-7.5v4.3h6.9v2.9h-6.9v4.6h7.5v2.9h-10.8v-17.6Z"/>
    <path class="st0" d="M275.2,76.3h-4.9v-2.9h13.2v2.9h-4.9v14.7h-3.3v-14.7h-.1Z"/>
  </g>
</svg>