<?xml version="1.0" encoding="UTF-8"?>
<svg id="Lag_1" data-name="Lag 1" xmlns="http://www.w3.org/2000/svg" version="1.1" viewBox="0 0 1251.983 389.576">
  <path d="M595.092,273.108c.685.896,1.28,1.791.174,2.963-1.679-.897-.988-1.919-.174-2.963Z" fill="#fefefd" stroke-width="0"/>
  <g>
    <g>
      <path d="M663.617,108.92c-.433-3.027,2.553-4.585,2.876-7.299.285-1.255-1.702-1.773-.543-5.179,1.28-1.9,3.695-5.352,5.96-8.898,1.271-1.99,3.15-4.096,3.251-6.222.207-4.335,2.598-6.078,6.076-7.509,1.092-.449,2.377-1.449,2.274-3.409.098-1.966-3.303-.343-3.178-3.315,6.095-6.971,9.069-16.258,12.804-25.299-.32-.422-.809-1.067-1.569-2.069,1.834-2.681,3.754-5.488,5.646-8.255,1.388.387,2,2.239,3.793,1.136,4.683-9.882,4.748-10.298,2.752-19.634,5.888,2.763,11.434,5.365,17.151,8.047,1.012-.538,2.367-1.258,3.923-2.085.436-3.289-.915-5.746-3.717-7.638-2.054-1.387-1.786-3.041-.248-4.653,2.517-.46,2.857,2.42,5.282,2.845,1.169-.187-.135-2.454,2.506-3.202,5.088,2.376,9.315,7.272,14.162,10.623.362,2.929-.495,5.435,1.066,8.239,1.428-1.984,2.723-3.784,3.916-5.443,7.222,3.461,6.731,12.195,13.162,15.245v7.624c.652,1.999,1.916,1.778,2.983,2.198-1.371,2.874-1.529,5.881-.989,8.935,1.594,1.347,1.955-1.667,3.345-.865,4.717,2.077,1.331,6.663,2.932,9.881.926,1.862.613,4.536,1.754,6.733,1.189,2.288-1.52,3.714-1.748,6.01-.427,4.293,2.133,7.677,1.762,12.171,1.282-.761,1.909-1.134,2.83-1.681,1.813,3.891-1.687,6.108-2.725,9.843.91,1.845,2.167,4.394,3.584,7.266-2.028,3.295-2.779,7.271-5.571,10.235-.377.4-.91.756-1.078,1.235-3.22,9.154-8.37,17.363-12.502,26.052-1.549,3.257-3.429,5.886-5.569,8.434-.831,6.962-2.986,10.886-10.417,18.864,1.421,3.666-.379,7.351-1.722,10.587-3.262,7.865-7.49,15.331-11.329,22.957-.671-.406-1.536-.662-1.983-1.24-5.165-6.686-8.223-14.802-14.226-20.926.354-4.314-4.673-6.415-4.059-10.71-2.888-.031-5.057-.555-6.212-3.264-3.223-7.556-7.901-14.215-12.789-20.773-.891-1.195-1.236-3.041-2.601-3.87-2.122-1.288-.168-3.828-1.706-5.016-4.526-1.342-5.834-5.18-7.746-8.67-3.032-5.533-5.634-11.49-11.544-14.821-.007-1.072-.014-2.144-.022-3.216Z" fill="#3266b0" stroke-width="0"/>
      <path d="M673.568,283.746c-3.744,6.017-7.551,11.908-8.412,19.296-.494,4.237-3.926,7.366-6.104,10.948-1.655,2.721-1.772,2.65-2.076,7.01-3.271,2.547-6.356,5.269-7.25,10.19-.657,3.615-3.316,6.868-5.168,10.446-2.432-5.845,2.777-11.077.643-16.627,4.317-4.483,6.232-9.775,7.201-17.209-6.552,6.672-7.438,15.349-13.761,20.228-1.868,7.628-9.099,11.717-11.746,18.249-3.424,1.696-5.294-2.179-8.445-1.162-3.83,7.236-6.088,15.831-14.741,22.619,1.6-4.958,1.848-8.175,4.267-10.928,2.309-2.627,3.771-5.836,2.248-10.069-3.516,2.719-5.968,6.574-10.784,7.498-2.82.541-3.548,4.487-5.175,7.028-2.277-.781-4.157-1.428-5.674-2.853-1.362.73-2.724,1.462-4.103,2.203-.176,1.85-.352,3.692-.498,5.223-2.517,1.9-3.33-2.01-5.362-.982-2.039,2.494-2.535,5.829-5.917,7.76-3.086,1.762-3.95,6.129-5.822,9.252-1.789,2.985-6.469,3.126-6.071,7.525-1.384.075-2.449.132-3.447.186-2.281-1.632-.111-4.28-1.496-6-1.719-1.347-3.788.021-5.808-1.003-3.047-2.679-4.274-6.952-6.893-10.296-2.661-3.397-2.484-4.798.083-8.483.612-.879,1.392-1.548,1.531-2.767.08-.707.88-1.332,1.465-2.146v-7.863c1.054-1.587,2.561-.885,3.841-1.085,9.117-13.62,7.078-10.348,2.92-18.652,1.866-2.747,3.13.414,5.044.498,1.605-.804,3.472-1.738,4.875-2.441.708-.866,1.335-1.276,1.36-1.719.274-4.977,3.432-8.821,5.394-13.048,7.937-17.096,16.308-33.992,24.628-50.908,2.026-4.12,3.83-8.195,3.072-13.31,4.45-4.073,6.597-9.612,9.071-15.246,4.09-9.317,7.954-18.859,13.669-27.422.563-.843.633-2.015.932-3.034.428-.004.856-.014,1.284-.029,7.083,11.071,13.347,22.687,21.953,32.745,1.006,1.176,2.251,2.679,2.283,4.055.086,3.767,2.793,5.607,4.866,8.023,1.899,2.213,4.621,4.491,5.01,7.041.536,3.512,3.011,5.76,4.94,7.048,1.811,1.21,2.521,2.714,3.149,4.084,2.432,5.302,5.99,9.854,9.092,14.707-.033.473-.055.946-.068,1.419Z" fill="#30b04f" stroke-width="0"/>
      <path d="M622.342,204.624c-.428.015-.856.024-1.284.029-3.313-9.191-8.345-17.567-12.765-26.213-2.624-5.133-5.724-9.909-7.612-15.507-1.663-4.932-5.84-8.793-7.749-13.809-.763-1.522.869-2.239,1.291-3.457-1.759-5.305-3.594-10.39-7.789-14.6-2.44-2.449-3.942-6.246-4.844-9.703-1.057-4.05-2.907-7.27-5.627-10.376-2.051-2.343-4.484-5.372-4.595-8.181-.24-6.05-3.905-10.353-6.093-15.388-1.277-2.938-2.22-5.807-2.724-9.064-.79-5.112-.691-10.546-3.507-15.389-1.207-.225-2.481-.462-3.726-.695-.235-.517-.473-.974-.656-1.452-1.206-3.161,2.011-5.353,1.786-8.45-.197-2.711-2.901-4.645-1.934-7.617.304-.935.047-2.053.047-3.47h7.987c-2.27-6.819-6.991-12.513-6.334-19.924,4.154-.224,4.919,3.259,7.801,4.668,2.088.135,4.909,1.19,6.676-2.288-.259-.35-.688-.93-1.125-1.521,1.276-1.838,2.633-3.582,5.425-2.424.647.19.842.874,1.219,1.584,2.967,5.595,4.781,11.967,10.168,16,1.619,1.212.685,3.287,1.529,4.357,1.902,2.412,1.913,6.026,5.113,8.312,3.453-6.126-3.186-8.583-3.782-12.866,6.341-.474,6.895,4.887,9.21,9.059,1.194-2.51,1.328-4.7-.16-6.774-3.578-4.985-6.562-10.128-7.482-16.412-.402-2.741-3.632-4.159-4.568-7.842-3.456,3.934-.32,7.957-2.856,11.172-2.384-5.927-4.379-11.797-8.206-17.822-.849-.594-3.011-1.204-3.947-3.294-.089-.86.247-2.073.923-1.921,3,.675,1.54-3.274,4.454-3.349,1.862.669,2.996,3.749,5.926,4.052,3.064.317,3.478,3.561,5.334,5.247,1.831,1.663,3.269,3.89,5.324,5.14,2.344,1.426,1.768,5.36,5.216,5.527.034,3.665,4.839,6.934.876,10.996-.413.423-.055,1.595-.055,2.376,3.619,2.312,7.8,4.06,6.631,9.764,5.018-1.083,2.125-4.49,2.726-5.251,1.651-2.165,1.908-.956,2.235-.454,2.087,3.203,6.665,4.24,7.456,8.561,2.38.029,2.209,1.683,2.405,3.392.425,3.705,1.726,7.118,3.487,9.627,2.663,1.055,3.316-1.723,5.759-1.037,2.912,6.988,5.257,14.744,10.173,21.122,1.397.353,2.013-.706,2.926-1.425.723.757,1.715,1.403,2.151,2.314,3.617,7.561,6.976,15.235,11.802,22.176,1.867,2.686,3.697,5.236,6.639,6.794.007,1.072.015,2.144.022,3.216-1.305-.031-2.434,1.122-2.456,1.814-.114,3.484-2.873,5.524-4.161,8.336-.977,2.132-2.709,4.042-3.193,6.25-.96,4.38-3.684,8.009-4.707,12.307-1.029,4.324-2.23,8.41-5.151,12.105-2.709,3.428-2.968,8.215-4.583,12.279-2.767,6.965-5.816,13.838-9.15,20.549-1.552,3.125-2.792,6.036-3.138,9.632-.326,3.39-2.057,6.715-4.759,9.215ZM595.092,51.108c-.814,1.044-1.505,2.066.174,2.963,1.106-1.172.511-2.067-.174-2.963Z" fill="#e82329" stroke-width="0"/>
      <path d="M622.342,204.624c2.702-2.5,4.433-5.826,4.759-9.215.346-3.596,1.585-6.507,3.138-9.632,3.334-6.712,6.383-13.584,9.15-20.549,1.614-4.064,1.873-8.851,4.583-12.279,2.921-3.695,4.121-7.781,5.151-12.105,1.023-4.299,3.746-7.927,4.707-12.307.484-2.208,2.216-4.118,3.193-6.25,1.288-2.811,4.047-4.852,4.161-8.336.023-.691,1.152-1.845,2.456-1.814,5.91,3.331,8.512,9.287,11.544,14.821,1.912,3.49,3.22,7.328,7.746,8.67,1.538,1.188-.416,3.728,1.706,5.016,1.365.829,1.71,2.675,2.601,3.87,4.889,6.558,9.567,13.217,12.789,20.773,1.155,2.709,3.325,3.233,6.212,3.264-.614,4.295,4.412,6.396,4.059,10.71,6.003,6.123,9.061,14.24,14.226,20.926.447.578,1.312.834,1.983,1.24-.079.554-.157,1.109-.236,1.663-2.392,1.323-4.088,3.12-5.043,5.817-.858,2.426-1.973,4.917-3.572,6.897-5.624,6.961-8.598,15.531-14.023,22.592-.279.364-.175,1.021-.242,1.495.633.883,1.241,1.73,1.757,2.45-10.349,22.975-11.413,24.418-20.678,28.669-2.203,3.262-4.038,6.125-6.03,8.875-1.137,1.569-2.578,2.856-4.801,2.442-3.102-4.853-6.661-9.405-9.092-14.707-.628-1.37-1.339-2.874-3.149-4.084-1.928-1.288-4.404-3.536-4.94-7.048-.389-2.55-3.112-4.827-5.01-7.041-2.073-2.416-4.78-4.256-4.866-8.023-.032-1.376-1.276-2.879-2.283-4.055-8.606-10.059-14.87-21.675-21.953-32.745Z" fill="#f904c5" stroke-width="0"/>
      <g>
        <path d="M780.715,326.282c1.182-2.754-.066-5.669,1.572-8.643,1.35-2.45.724-6.131-.484-9.379-1.27-3.415-2.527-6.819-4.754-10.472,2.336-2.242,2.839-5.048,2.124-8.609-1.94-1.691-4.225-3.683-5.814-5.069-1.082-7.698-4.376-13.355-8.556-18.288-4.224-4.985-7.783-10.25-10.626-16.095-1.48-3.043-3.076-6.023-4.922-8.921-2.48-3.893-6.078-6.771-8.281-10.824-3.13-5.76-7.779-10.595-10.256-16.829-.605-1.522-2.123-3.199-4.177-3.672-.091-2.13-.182-4.261-.273-6.391-2.392,1.323-4.088,3.12-5.043,5.817-.858,2.426-1.973,4.917-3.572,6.897-5.624,6.961-8.598,15.531-14.023,22.592-.279.364-.175,1.021-.242,1.495.633.883,1.241,1.73,1.757,2.451-10.349,22.975-11.413,24.418-20.678,28.669-2.203,3.262-4.038,6.125-6.03,8.875-1.137,1.569-2.578,2.856-4.801,2.442-.033.473-.055.946-.068,1.419,1.158.589,2.315,1.178,3.473,1.767.504,4.166,3.065,7.24,5.857,9.958,8.842,8.607,15.588,18.918,23.083,28.578,2.405,3.1,5.925,5.486,7.32,9.329,2.729,7.52,7.831,12.843,14.81,16.518-.114-1.807.226-3.515-1.147-5.3-4.36-5.665-8.33-11.628-12.558-17.396-1.253-1.71-1.824-3.734-3.517-5.3-8.306-7.688-13.376-17.865-20.116-26.769-1.206-1.594-1.23-3.383.649-4.674,4.702,1.361,5.809,5.861,7.971,8.962,2.416,3.466,5.52,6.369,7.679,10.116,1.993,3.46,5.412,6.219,8.56,8.862,3.181,2.672,4.451,6.701,7.552,9.412,3.309,2.893,6.243,6.21,9.411,9.269,2.781,2.685,5.66,5.269,8.025,7.461,4.163,1.666,7.242-.743,10.211-1.341,5.553,1.495,8.691,7.716,15.011,6.62,1.834-6.033-6.511-8.373-4.237-14.059,8.424-5.38,13.712.138,18.791,6.014,3.113-6.436-4.409-9.047-4.054-14.15,1.087-1.657,3.294.192,4.374-1.34Z" fill="#fbc708" stroke-width="0"/>
        <path d="M728.168,349.93c-.02-.01-.038-.023-.057-.033.002.029.002.058.004.088l.054-.055Z" fill="#fbc708" stroke-width="0"/>
      </g>
    </g>
    <g>
      <path d="M41.046,140.887c12.868,0,24.114,2.375,33.737,7.122l-4.686,15.931c-5.248-2.498-10.092-4.34-14.526-5.529-4.437-1.186-8.902-1.78-13.4-1.78-6.748,0-12.06,1.438-15.931,4.311-3.875,2.876-5.811,6.873-5.811,11.995,0,4.498,1.5,8.06,4.499,10.684,2.999,2.624,7.872,4.999,14.619,7.122l11.62,3.748c10.244,3.251,17.741,7.778,22.491,13.589,4.747,5.81,7.122,12.528,7.122,20.147,0,5.125-1.001,9.811-2.999,14.058-2,4.249-4.844,7.871-8.528,10.87-3.687,2.999-8.153,5.342-13.401,7.028-5.248,1.688-11.058,2.53-17.43,2.53s-12.716-.595-19.024-1.78c-6.311-1.187-12.463-3.216-18.461-6.092l4.686-15.743c5.371,2.624,10.619,4.592,15.744,5.904,5.122,1.312,10.496,1.968,16.118,1.968,6.748,0,12.244-1.436,16.494-4.311,4.246-2.873,6.373-7.123,6.373-12.745,0-3.998-1.47-7.559-4.405-10.684-2.937-3.122-8.654-6.059-17.149-8.809l-11.058-3.562c-8.621-2.873-15.401-6.715-20.335-11.526-4.938-4.809-7.403-11.526-7.403-20.148,0-10.369,3.497-18.678,10.496-24.927,6.996-6.247,17.179-9.371,30.55-9.371Z" fill="#000" stroke-width="0"/>
      <path d="M218.537,142.761v16.493h-35.611v101.584h-20.054v-101.584h-35.049v-16.493h90.714Z" fill="#000" stroke-width="0"/>
      <path d="M271.951,142.761h73.096v16.118h-53.041v32.612h48.168v15.931h-48.168v37.298h53.603v16.118h-73.658v-118.077Z" fill="#000" stroke-width="0"/>
      <path d="M411.394,142.761h25.865l20.804,63.724c1.748,5.374,3.28,10.215,4.592,14.525,1.312,4.312,2.653,9.155,4.03,14.525h.562c1.374-4.498,2.779-9.307,4.217-14.432,1.435-5.121,2.84-9.994,4.217-14.619l20.055-63.724h25.864l9.746,118.077h-19.492c-1.001-12.493-1.968-25.083-2.905-37.766-.937-12.681-1.658-25.396-2.155-38.142l-.75-21.554h-.375c-2.126,7.749-4.343,15.621-6.654,23.615-2.313,7.998-4.718,15.683-7.216,23.054l-16.681,50.792h-17.056l-16.868-50.979c-1.751-5.371-3.28-10.244-4.592-14.619-1.312-4.372-2.501-8.401-3.562-12.089-1.063-3.684-2.032-7.151-2.905-10.402-.875-3.247-1.687-6.372-2.437-9.371h-.562c-.375,10.622-.937,21.431-1.687,32.425-.75,10.996-1.438,21.554-2.062,31.675l-2.249,33.361h-19.117l9.371-118.077Z" fill="#000" stroke-width="0"/>
      <path d="M837.402,142.761h25.865l20.804,63.724c1.748,5.374,3.28,10.215,4.592,14.525,1.312,4.312,2.653,9.155,4.029,14.525h.562c1.374-4.498,2.779-9.307,4.217-14.432,1.436-5.121,2.841-9.994,4.218-14.619l20.054-63.724h25.865l9.746,118.077h-19.492c-1.002-12.493-1.968-25.083-2.905-37.766-.938-12.681-1.657-25.396-2.155-38.142l-.75-21.554h-.375c-2.126,7.749-4.343,15.621-6.653,23.615-2.313,7.998-4.718,15.683-7.216,23.054l-16.681,50.792h-17.056l-16.868-50.979c-1.751-5.371-3.28-10.244-4.592-14.619-1.312-4.372-2.501-8.401-3.562-12.089-1.062-3.684-2.032-7.151-2.905-10.402-.875-3.247-1.687-6.372-2.437-9.371h-.562c-.375,10.622-.938,21.431-1.688,32.425-.749,10.996-1.438,21.554-2.062,31.675l-2.249,33.361h-19.117l9.371-118.077Z" fill="#000" stroke-width="0"/>
      <path d="M1021.077,142.761h73.096v16.118h-53.041v32.612h48.168v15.931h-48.168v37.298h53.604v16.118h-73.658v-118.077Z" fill="#000" stroke-width="0"/>
      <path d="M1192.757,142.761c8.621,0,16.555,1.188,23.803,3.561,7.245,2.375,13.494,5.904,18.742,10.59s9.339,10.561,12.276,17.618c2.935,7.061,4.404,15.274,4.404,24.646,0,11.123-1.751,20.588-5.247,28.396-3.5,7.811-8.218,14.183-14.151,19.117-5.936,4.938-12.87,8.527-20.804,10.776-7.937,2.249-16.276,3.374-25.021,3.374h-33.361v-118.077h39.359ZM1173.453,244.72h11.62c5.746,0,11.339-.656,16.774-1.969,5.436-1.312,10.276-3.684,14.525-7.122,4.246-3.435,7.652-8.088,10.215-13.963,2.56-5.871,3.842-13.368,3.842-22.491,0-12.993-3.719-22.959-11.151-29.894-7.436-6.935-17.401-10.402-29.895-10.402h-15.931v85.841Z" fill="#000" stroke-width="0"/>
    </g>
  </g>
</svg>