<?xml version="1.0" encoding="UTF-8"?>
<svg id="Lag_1" xmlns="http://www.w3.org/2000/svg" version="1.1" viewBox="0 0 1251.98 389.58">
  <!-- Generator: Adobe Illustrator 29.8.1, SVG Export Plug-In . SVG Version: 2.1.1 Build 2)  -->
  <defs>
    <style>
      .st0 {
        fill: #a7805a;
      }

      .st0, .st1, .st2, .st3, .st4, .st5 {
        stroke: #fff;
        stroke-miterlimit: 10;
      }

      .st6 {
        fill: #fefefd;
      }

      .st1 {
        fill: #637e77;
      }

      .st2 {
        fill: #fbcc34;
      }

      .st3 {
        fill: #4d4e4e;
      }

      .st4 {
        fill: #b96e2b;
      }

      .st5 {
        fill: #497775;
      }
    </style>
  </defs>
  <path class="st6" d="M595.09,273.11c.68.9,1.28,1.79.17,2.96-1.68-.9-.99-1.92-.17-2.96Z"/>
  <g>
    <g>
      <path class="st5" d="M663.62,108.92c-.43-3.03,2.55-4.58,2.88-7.3.28-1.25-1.7-1.77-.54-5.18,1.28-1.9,3.7-5.35,5.96-8.9,1.27-1.99,3.15-4.1,3.25-6.22.21-4.33,2.6-6.08,6.08-7.51,1.09-.45,2.38-1.45,2.27-3.41.1-1.97-3.3-.34-3.18-3.32,6.09-6.97,9.07-16.26,12.8-25.3-.32-.42-.81-1.07-1.57-2.07,1.83-2.68,3.75-5.49,5.65-8.26,1.39.39,2,2.24,3.79,1.14,4.68-9.88,4.75-10.3,2.75-19.63,5.89,2.76,11.43,5.36,17.15,8.05,1.01-.54,2.37-1.26,3.92-2.08.44-3.29-.91-5.75-3.72-7.64-2.05-1.39-1.79-3.04-.25-4.65,2.52-.46,2.86,2.42,5.28,2.85,1.17-.19-.14-2.45,2.51-3.2,5.09,2.38,9.32,7.27,14.16,10.62.36,2.93-.49,5.43,1.07,8.24,1.43-1.98,2.72-3.78,3.92-5.44,7.22,3.46,6.73,12.19,13.16,15.24v7.62c.65,2,1.92,1.78,2.98,2.2-1.37,2.87-1.53,5.88-.99,8.94,1.59,1.35,1.96-1.67,3.34-.87,4.72,2.08,1.33,6.66,2.93,9.88.93,1.86.61,4.54,1.75,6.73,1.19,2.29-1.52,3.71-1.75,6.01-.43,4.29,2.13,7.68,1.76,12.17,1.28-.76,1.91-1.13,2.83-1.68,1.81,3.89-1.69,6.11-2.72,9.84.91,1.85,2.17,4.39,3.58,7.27-2.03,3.29-2.78,7.27-5.57,10.24-.38.4-.91.76-1.08,1.24-3.22,9.15-8.37,17.36-12.5,26.05-1.55,3.26-3.43,5.89-5.57,8.43-.83,6.96-2.99,10.89-10.42,18.86,1.42,3.67-.38,7.35-1.72,10.59-3.26,7.87-7.49,15.33-11.33,22.96-.67-.41-1.54-.66-1.98-1.24-5.16-6.69-8.22-14.8-14.23-20.93.35-4.31-4.67-6.41-4.06-10.71-2.89-.03-5.06-.55-6.21-3.26-3.22-7.56-7.9-14.21-12.79-20.77-.89-1.2-1.24-3.04-2.6-3.87-2.12-1.29-.17-3.83-1.71-5.02-4.53-1.34-5.83-5.18-7.75-8.67-3.03-5.53-5.63-11.49-11.54-14.82,0-1.07-.01-2.14-.02-3.22h0Z"/>
      <path class="st1" d="M673.57,283.75c-3.74,6.02-7.55,11.91-8.41,19.3-.49,4.24-3.93,7.37-6.1,10.95-1.66,2.72-1.77,2.65-2.08,7.01-3.27,2.55-6.36,5.27-7.25,10.19-.66,3.61-3.32,6.87-5.17,10.45-2.43-5.85,2.78-11.08.64-16.63,4.32-4.48,6.23-9.77,7.2-17.21-6.55,6.67-7.44,15.35-13.76,20.23-1.87,7.63-9.1,11.72-11.75,18.25-3.42,1.7-5.29-2.18-8.45-1.16-3.83,7.24-6.09,15.83-14.74,22.62,1.6-4.96,1.85-8.17,4.27-10.93,2.31-2.63,3.77-5.84,2.25-10.07-3.52,2.72-5.97,6.57-10.78,7.5-2.82.54-3.55,4.49-5.17,7.03-2.28-.78-4.16-1.43-5.67-2.85-1.36.73-2.72,1.46-4.1,2.2-.18,1.85-.35,3.69-.5,5.22-2.52,1.9-3.33-2.01-5.36-.98-2.04,2.49-2.53,5.83-5.92,7.76-3.09,1.76-3.95,6.13-5.82,9.25-1.79,2.98-6.47,3.13-6.07,7.52-1.38.08-2.45.13-3.45.19-2.28-1.63-.11-4.28-1.5-6-1.72-1.35-3.79.02-5.81-1-3.05-2.68-4.27-6.95-6.89-10.3-2.66-3.4-2.48-4.8.08-8.48.61-.88,1.39-1.55,1.53-2.77.08-.71.88-1.33,1.47-2.15v-7.86c1.05-1.59,2.56-.89,3.84-1.08,9.12-13.62,7.08-10.35,2.92-18.65,1.87-2.75,3.13.41,5.04.5,1.6-.8,3.47-1.74,4.88-2.44.71-.87,1.34-1.28,1.36-1.72.27-4.98,3.43-8.82,5.39-13.05,7.94-17.1,16.31-33.99,24.63-50.91,2.03-4.12,3.83-8.2,3.07-13.31,4.45-4.07,6.6-9.61,9.07-15.25,4.09-9.32,7.95-18.86,13.67-27.42.56-.84.63-2.01.93-3.03.43,0,.86-.01,1.28-.03,7.08,11.07,13.35,22.69,21.95,32.74,1.01,1.18,2.25,2.68,2.28,4.05.09,3.77,2.79,5.61,4.87,8.02,1.9,2.21,4.62,4.49,5.01,7.04.54,3.51,3.01,5.76,4.94,7.05,1.81,1.21,2.52,2.71,3.15,4.08,2.43,5.3,5.99,9.85,9.09,14.71-.03.47-.05.95-.07,1.42h0Z"/>
      <path class="st4" d="M622.34,204.62c-.43.01-.86.02-1.28.03-3.31-9.19-8.34-17.57-12.77-26.21-2.62-5.13-5.72-9.91-7.61-15.51-1.66-4.93-5.84-8.79-7.75-13.81-.76-1.52.87-2.24,1.29-3.46-1.76-5.3-3.59-10.39-7.79-14.6-2.44-2.45-3.94-6.25-4.84-9.7-1.06-4.05-2.91-7.27-5.63-10.38-2.05-2.34-4.48-5.37-4.59-8.18-.24-6.05-3.91-10.35-6.09-15.39-1.28-2.94-2.22-5.81-2.72-9.06-.79-5.11-.69-10.55-3.51-15.39-1.21-.22-2.48-.46-3.73-.69-.23-.52-.47-.97-.66-1.45-1.21-3.16,2.01-5.35,1.79-8.45-.2-2.71-2.9-4.65-1.93-7.62.3-.94.05-2.05.05-3.47h7.99c-2.27-6.82-6.99-12.51-6.33-19.92,4.15-.22,4.92,3.26,7.8,4.67,2.09.14,4.91,1.19,6.68-2.29-.26-.35-.69-.93-1.12-1.52,1.28-1.84,2.63-3.58,5.42-2.42.65.19.84.87,1.22,1.58,2.97,5.59,4.78,11.97,10.17,16,1.62,1.21.68,3.29,1.53,4.36,1.9,2.41,1.91,6.03,5.11,8.31,3.45-6.13-3.19-8.58-3.78-12.87,6.34-.47,6.9,4.89,9.21,9.06,1.19-2.51,1.33-4.7-.16-6.77-3.58-4.99-6.56-10.13-7.48-16.41-.4-2.74-3.63-4.16-4.57-7.84-3.46,3.93-.32,7.96-2.86,11.17-2.38-5.93-4.38-11.8-8.21-17.82-.85-.59-3.01-1.2-3.95-3.29-.09-.86.25-2.07.92-1.92,3,.68,1.54-3.27,4.45-3.35,1.86.67,3,3.75,5.93,4.05,3.06.32,3.48,3.56,5.33,5.25,1.83,1.66,3.27,3.89,5.32,5.14,2.34,1.43,1.77,5.36,5.22,5.53.03,3.66,4.84,6.93.88,11-.41.42-.05,1.6-.05,2.38,3.62,2.31,7.8,4.06,6.63,9.76,5.02-1.08,2.12-4.49,2.73-5.25,1.65-2.17,1.91-.96,2.23-.45,2.09,3.2,6.66,4.24,7.46,8.56,2.38.03,2.21,1.68,2.41,3.39.42,3.7,1.73,7.12,3.49,9.63,2.66,1.06,3.32-1.72,5.76-1.04,2.91,6.99,5.26,14.74,10.17,21.12,1.4.35,2.01-.71,2.93-1.43.72.76,1.72,1.4,2.15,2.31,3.62,7.56,6.98,15.24,11.8,22.18,1.87,2.69,3.7,5.24,6.64,6.79,0,1.07.02,2.14.02,3.22-1.3-.03-2.43,1.12-2.46,1.81-.11,3.48-2.87,5.52-4.16,8.34-.98,2.13-2.71,4.04-3.19,6.25-.96,4.38-3.68,8.01-4.71,12.31-1.03,4.32-2.23,8.41-5.15,12.1-2.71,3.43-2.97,8.21-4.58,12.28-2.77,6.96-5.82,13.84-9.15,20.55-1.55,3.12-2.79,6.04-3.14,9.63-.33,3.39-2.06,6.71-4.76,9.21h0ZM595.09,51.11c-.81,1.04-1.51,2.07.17,2.96,1.11-1.17.51-2.07-.17-2.96Z"/>
      <path class="st0" d="M622.34,204.62c2.7-2.5,4.43-5.83,4.76-9.21.35-3.6,1.59-6.51,3.14-9.63,3.33-6.71,6.38-13.58,9.15-20.55,1.61-4.06,1.87-8.85,4.58-12.28,2.92-3.7,4.12-7.78,5.15-12.1,1.02-4.3,3.75-7.93,4.71-12.31.48-2.21,2.22-4.12,3.19-6.25,1.29-2.81,4.05-4.85,4.16-8.34.02-.69,1.15-1.85,2.46-1.81,5.91,3.33,8.51,9.29,11.54,14.82,1.91,3.49,3.22,7.33,7.75,8.67,1.54,1.19-.42,3.73,1.71,5.02,1.36.83,1.71,2.68,2.6,3.87,4.89,6.56,9.57,13.22,12.79,20.77,1.16,2.71,3.33,3.23,6.21,3.26-.61,4.29,4.41,6.4,4.06,10.71,6,6.12,9.06,14.24,14.23,20.93.45.58,1.31.83,1.98,1.24-.08.55-.16,1.11-.24,1.66-2.39,1.32-4.09,3.12-5.04,5.82-.86,2.43-1.97,4.92-3.57,6.9-5.62,6.96-8.6,15.53-14.02,22.59-.28.36-.17,1.02-.24,1.49.63.88,1.24,1.73,1.76,2.45-10.35,22.97-11.41,24.42-20.68,28.67-2.2,3.26-4.04,6.12-6.03,8.88-1.14,1.57-2.58,2.86-4.8,2.44-3.1-4.85-6.66-9.4-9.09-14.71-.63-1.37-1.34-2.87-3.15-4.08-1.93-1.29-4.4-3.54-4.94-7.05-.39-2.55-3.11-4.83-5.01-7.04-2.07-2.42-4.78-4.26-4.87-8.02-.03-1.38-1.28-2.88-2.28-4.05-8.61-10.06-14.87-21.68-21.95-32.74h0Z"/>
      <g>
        <path class="st2" d="M780.72,326.28c1.18-2.75-.07-5.67,1.57-8.64,1.35-2.45.72-6.13-.48-9.38-1.27-3.42-2.53-6.82-4.75-10.47,2.34-2.24,2.84-5.05,2.12-8.61-1.94-1.69-4.22-3.68-5.81-5.07-1.08-7.7-4.38-13.36-8.56-18.29-4.22-4.98-7.78-10.25-10.63-16.1-1.48-3.04-3.08-6.02-4.92-8.92-2.48-3.89-6.08-6.77-8.28-10.82-3.13-5.76-7.78-10.6-10.26-16.83-.6-1.52-2.12-3.2-4.18-3.67-.09-2.13-.18-4.26-.27-6.39-2.39,1.32-4.09,3.12-5.04,5.82-.86,2.43-1.97,4.92-3.57,6.9-5.62,6.96-8.6,15.53-14.02,22.59-.28.36-.17,1.02-.24,1.49.63.88,1.24,1.73,1.76,2.45-10.35,22.98-11.41,24.42-20.68,28.67-2.2,3.26-4.04,6.12-6.03,8.88-1.14,1.57-2.58,2.86-4.8,2.44-.03.47-.05.95-.07,1.42,1.16.59,2.32,1.18,3.47,1.77.5,4.17,3.07,7.24,5.86,9.96,8.84,8.61,15.59,18.92,23.08,28.58,2.41,3.1,5.92,5.49,7.32,9.33,2.73,7.52,7.83,12.84,14.81,16.52-.11-1.81.23-3.52-1.15-5.3-4.36-5.67-8.33-11.63-12.56-17.4-1.25-1.71-1.82-3.73-3.52-5.3-8.31-7.69-13.38-17.86-20.12-26.77-1.21-1.59-1.23-3.38.65-4.67,4.7,1.36,5.81,5.86,7.97,8.96,2.42,3.47,5.52,6.37,7.68,10.12,1.99,3.46,5.41,6.22,8.56,8.86,3.18,2.67,4.45,6.7,7.55,9.41,3.31,2.89,6.24,6.21,9.41,9.27,2.78,2.68,5.66,5.27,8.03,7.46,4.16,1.67,7.24-.74,10.21-1.34,5.55,1.49,8.69,7.72,15.01,6.62,1.83-6.03-6.51-8.37-4.24-14.06,8.42-5.38,13.71.14,18.79,6.01,3.11-6.44-4.41-9.05-4.05-14.15,1.09-1.66,3.29.19,4.37-1.34h0Z"/>
        <path class="st2" d="M728.17,349.93s-.04-.02-.06-.03c0,.03,0,.06,0,.09l.05-.05h0Z"/>
      </g>
    </g>
    <g>
      <path class="st3" d="M41.05,140.89c12.87,0,24.11,2.38,33.74,7.12l-4.69,15.93c-5.25-2.5-10.09-4.34-14.53-5.53-4.44-1.19-8.9-1.78-13.4-1.78-6.75,0-12.06,1.44-15.93,4.31-3.88,2.88-5.81,6.87-5.81,11.99,0,4.5,1.5,8.06,4.5,10.68,3,2.62,7.87,5,14.62,7.12l11.62,3.75c10.24,3.25,17.74,7.78,22.49,13.59,4.75,5.81,7.12,12.53,7.12,20.15,0,5.12-1,9.81-3,14.06-2,4.25-4.84,7.87-8.53,10.87-3.69,3-8.15,5.34-13.4,7.03-5.25,1.69-11.06,2.53-17.43,2.53s-12.72-.6-19.02-1.78c-6.31-1.19-12.46-3.22-18.46-6.09l4.69-15.74c5.37,2.62,10.62,4.59,15.74,5.9,5.12,1.31,10.5,1.97,16.12,1.97,6.75,0,12.24-1.44,16.49-4.31,4.25-2.87,6.37-7.12,6.37-12.74,0-4-1.47-7.56-4.4-10.68-2.94-3.12-8.65-6.06-17.15-8.81l-11.06-3.56c-8.62-2.87-15.4-6.71-20.33-11.53C2.47,190.52,0,183.81,0,175.18c0-10.37,3.5-18.68,10.5-24.93,7-6.25,17.18-9.37,30.55-9.37h0Z"/>
      <path class="st3" d="M218.54,142.76v16.49h-35.61v101.58h-20.05v-101.58h-35.05v-16.49h90.71Z"/>
      <path class="st3" d="M271.95,142.76h73.1v16.12h-53.04v32.61h48.17v15.93h-48.17v37.3h53.6v16.12h-73.66v-118.08h0Z"/>
      <path class="st3" d="M411.39,142.76h25.86l20.8,63.72c1.75,5.37,3.28,10.21,4.59,14.52,1.31,4.31,2.65,9.15,4.03,14.52h.56c1.37-4.5,2.78-9.31,4.22-14.43,1.43-5.12,2.84-9.99,4.22-14.62l20.05-63.72h25.86l9.75,118.08h-19.49c-1-12.49-1.97-25.08-2.9-37.77-.94-12.68-1.66-25.4-2.15-38.14l-.75-21.55h-.38c-2.13,7.75-4.34,15.62-6.65,23.62-2.31,8-4.72,15.68-7.22,23.05l-16.68,50.79h-17.06l-16.87-50.98c-1.75-5.37-3.28-10.24-4.59-14.62-1.31-4.37-2.5-8.4-3.56-12.09-1.06-3.68-2.03-7.15-2.9-10.4-.88-3.25-1.69-6.37-2.44-9.37h-.56c-.38,10.62-.94,21.43-1.69,32.43-.75,11-1.44,21.55-2.06,31.68l-2.25,33.36h-19.12l9.37-118.08h0Z"/>
      <path class="st3" d="M837.4,142.76h25.86l20.8,63.72c1.75,5.37,3.28,10.21,4.59,14.52,1.31,4.31,2.65,9.15,4.03,14.52h.56c1.37-4.5,2.78-9.31,4.22-14.43,1.44-5.12,2.84-9.99,4.22-14.62l20.05-63.72h25.86l9.75,118.08h-19.49c-1-12.49-1.97-25.08-2.91-37.77-.94-12.68-1.66-25.4-2.16-38.14l-.75-21.55h-.38c-2.13,7.75-4.34,15.62-6.65,23.62-2.31,8-4.72,15.68-7.22,23.05l-16.68,50.79h-17.06l-16.87-50.98c-1.75-5.37-3.28-10.24-4.59-14.62-1.31-4.37-2.5-8.4-3.56-12.09-1.06-3.68-2.03-7.15-2.91-10.4-.88-3.25-1.69-6.37-2.44-9.37h-.56c-.38,10.62-.94,21.43-1.69,32.43-.75,11-1.44,21.55-2.06,31.68l-2.25,33.36h-19.12l9.37-118.08h0Z"/>
      <path class="st3" d="M1021.08,142.76h73.1v16.12h-53.04v32.61h48.17v15.93h-48.17v37.3h53.6v16.12h-73.66v-118.08h0Z"/>
      <path class="st3" d="M1192.76,142.76c8.62,0,16.56,1.19,23.8,3.56,7.24,2.38,13.49,5.9,18.74,10.59s9.34,10.56,12.28,17.62c2.94,7.06,4.4,15.27,4.4,24.65,0,11.12-1.75,20.59-5.25,28.4-3.5,7.81-8.22,14.18-14.15,19.12-5.94,4.94-12.87,8.53-20.8,10.78-7.94,2.25-16.28,3.37-25.02,3.37h-33.36v-118.08h39.36,0ZM1173.45,244.72h11.62c5.75,0,11.34-.66,16.77-1.97,5.44-1.31,10.28-3.68,14.53-7.12,4.25-3.43,7.65-8.09,10.21-13.96,2.56-5.87,3.84-13.37,3.84-22.49,0-12.99-3.72-22.96-11.15-29.89-7.44-6.93-17.4-10.4-29.9-10.4h-15.93v85.84h0Z"/>
    </g>
  </g>
</svg>